<svg xmlns="http://www.w3.org/2000/svg" xmlns:xlink="http://www.w3.org/1999/xlink" width="500" zoomAndPan="magnify" viewBox="0 0 375 374.999991" height="500" preserveAspectRatio="xMidYMid meet" version="1.0"><defs><clipPath id="67e7679aab"><path d="M 107.414062 78.539062 L 119 78.539062 L 119 305.039062 L 107.414062 305.039062 Z M 107.414062 78.539062 " clip-rule="nonzero"/></clipPath><clipPath id="da09203969"><path d="M 155 78.539062 L 167 78.539062 L 167 305.039062 L 155 305.039062 Z M 155 78.539062 " clip-rule="nonzero"/></clipPath><clipPath id="84eacddeb8"><path d="M 203 78.539062 L 273.914062 78.539062 L 273.914062 305.039062 L 203 305.039062 Z M 203 78.539062 " clip-rule="nonzero"/></clipPath></defs><g clip-path="url(#67e7679aab)"><path fill="#eeeeee" d="M 113.035156 305.265625 C 109.945312 305.265625 107.4375 302.757812 107.4375 299.667969 L 107.4375 84.511719 C 107.4375 81.421875 109.945312 78.914062 113.035156 78.914062 C 116.125 78.914062 118.632812 81.421875 118.632812 84.511719 L 118.632812 299.667969 C 118.632812 302.757812 116.125 305.261719 113.035156 305.261719 Z M 113.035156 305.265625 " fill-opacity="1" fill-rule="nonzero"/></g><g clip-path="url(#da09203969)"><path fill="#eeeeee" d="M 160.847656 305.265625 C 157.757812 305.265625 155.25 302.757812 155.25 299.667969 L 155.25 84.511719 C 155.25 81.421875 157.757812 78.914062 160.847656 78.914062 C 163.9375 78.914062 166.445312 81.421875 166.445312 84.511719 L 166.445312 299.667969 C 166.445312 302.757812 163.9375 305.261719 160.847656 305.261719 Z M 160.847656 305.265625 " fill-opacity="1" fill-rule="nonzero"/></g><g clip-path="url(#84eacddeb8)"><path fill="#eeeeee" d="M 268.425781 305.265625 L 208.660156 305.265625 C 205.570312 305.265625 203.0625 302.757812 203.0625 299.667969 L 203.0625 84.511719 C 203.0625 82.359375 204.296875 80.398438 206.238281 79.46875 C 208.175781 78.535156 210.476562 78.796875 212.15625 80.140625 C 232.078125 96.078125 252 112.015625 271.921875 127.953125 C 273.25 129.015625 274.023438 130.625 274.023438 132.324219 L 274.023438 299.667969 C 274.023438 302.757812 271.515625 305.265625 268.425781 305.265625 Z M 214.257812 294.070312 L 262.828125 294.070312 L 262.828125 135.011719 C 246.636719 122.0625 230.449219 109.109375 214.257812 96.15625 Z M 214.257812 294.070312 " fill-opacity="1" fill-rule="nonzero"/></g></svg>